<?xml version="1.0" encoding="utf-8"?>
<!-- Generator: Adobe Illustrator 25.0.0, SVG Export Plug-In . SVG Version: 6.00 Build 0)  -->
<svg version="1.1" id="레이어_1" xmlns="http://www.w3.org/2000/svg" xmlns:xlink="http://www.w3.org/1999/xlink" x="0px"
	 y="0px" viewBox="0 0 100 17" style="enable-background:new 0 0 100 17;" xml:space="preserve">
<style type="text/css">
	.st0{fill:#ABDCD2;}
	.st1{fill:#F2F2F2;}
</style>
<path class="st0" d="M15.54,6.17c-0.1-0.27-0.35-0.46-0.65-0.49l-4.25-0.33L8.8,1.42C8.68,1.17,8.41,1,8.12,1S7.56,1.17,7.44,1.42
	L5.6,5.36L1.34,5.69C1.05,5.71,0.8,5.89,0.7,6.16S0.67,6.72,0.88,6.92l3.14,2.96l-1.11,4.65c-0.07,0.29,0.05,0.59,0.3,0.75
	c0.13,0.09,0.28,0.13,0.42,0.13c0.14,0,0.29-0.04,0.41-0.12l4.06-2.62l4.06,2.62c0.26,0.17,0.6,0.16,0.85-0.02
	c0.25-0.18,0.36-0.49,0.28-0.78l-1.36-4.61l3.38-2.94C15.55,6.75,15.63,6.45,15.54,6.17z"/>
<path class="st0" d="M36.39,6.17c-0.1-0.27-0.35-0.46-0.65-0.49l-4.25-0.33l-1.84-3.94C29.53,1.17,29.27,1,28.97,1
	s-0.56,0.17-0.68,0.42l-1.84,3.94L22.2,5.69c-0.29,0.02-0.54,0.21-0.64,0.47s-0.03,0.56,0.18,0.76l3.14,2.96l-1.11,4.65
	c-0.07,0.29,0.05,0.59,0.3,0.75c0.13,0.09,0.28,0.13,0.42,0.13c0.14,0,0.29-0.04,0.41-0.12l4.06-2.62l4.06,2.62
	c0.26,0.17,0.6,0.16,0.85-0.02c0.25-0.18,0.36-0.49,0.28-0.78L32.8,9.88l3.38-2.94C36.41,6.75,36.49,6.45,36.39,6.17z"/>
<path class="st0" d="M57.25,6.17c-0.1-0.27-0.35-0.46-0.65-0.49l-4.25-0.33l-1.84-3.94C50.39,1.17,50.12,1,49.83,1
	c-0.29,0-0.56,0.17-0.68,0.42l-1.84,3.94l-4.25,0.33c-0.29,0.02-0.54,0.21-0.64,0.47c-0.1,0.27-0.03,0.56,0.18,0.76l3.14,2.96
	l-1.11,4.65c-0.07,0.29,0.05,0.59,0.3,0.75c0.13,0.09,0.28,0.13,0.42,0.13c0.14,0,0.29-0.04,0.41-0.12l4.06-2.62l4.06,2.62
	c0.26,0.17,0.6,0.16,0.85-0.02c0.25-0.18,0.36-0.49,0.28-0.78l-1.36-4.61l3.38-2.94C57.26,6.75,57.34,6.45,57.25,6.17z"/>
<path class="st1" d="M78.1,6.68c-0.1-0.27-0.35-0.46-0.65-0.49L73.2,5.87l-1.84-3.94c-0.12-0.26-0.39-0.42-0.68-0.42
	c-0.29,0-0.56,0.17-0.68,0.42l-1.84,3.94l-4.25,0.33c-0.29,0.02-0.54,0.21-0.64,0.47c-0.1,0.27-0.03,0.56,0.18,0.76l3.14,2.96
	l-1.11,4.65c-0.07,0.29,0.05,0.59,0.3,0.75c0.13,0.09,0.28,0.13,0.42,0.13c0.14,0,0.29-0.04,0.41-0.12l4.06-2.62l4.06,2.62
	c0.26,0.17,0.6,0.16,0.85-0.02c0.25-0.18,0.36-0.49,0.28-0.78l-1.36-4.61l3.38-2.94C78.12,7.25,78.2,6.95,78.1,6.68z"/>
<path class="st1" d="M98.96,6.68c-0.1-0.27-0.35-0.46-0.65-0.49l-4.25-0.33l-1.84-3.94c-0.12-0.26-0.39-0.42-0.68-0.42
	c-0.29,0-0.56,0.17-0.68,0.42l-1.84,3.94l-4.25,0.33c-0.29,0.02-0.54,0.21-0.64,0.47c-0.1,0.27-0.03,0.56,0.18,0.76l3.14,2.96
	l-1.11,4.65c-0.07,0.29,0.05,0.59,0.3,0.75c0.13,0.09,0.28,0.13,0.42,0.13c0.14,0,0.29-0.04,0.41-0.12l4.06-2.62l4.06,2.62
	c0.26,0.17,0.6,0.16,0.85-0.02c0.25-0.18,0.36-0.49,0.28-0.78l-1.36-4.61l3.38-2.94C98.97,7.25,99.06,6.95,98.96,6.68z"/>
</svg>
