<svg xmlns="http://www.w3.org/2000/svg" width="329" height="329" viewBox="0 0 329 329"><defs><style>.a{fill:#f1f1f1;}.b{fill:#f8b1b9;}.c,.e{fill:none;stroke-linecap:round;stroke-width:11px;}.c{stroke:#c2c2c2;}.d{fill:#c2c2c2;}.e{stroke:#f8b1b9;}</style></defs><g transform="translate(-156 -803)"><circle class="a" cx="164.5" cy="164.5" r="164.5" transform="translate(156 803)"/><g transform="translate(0 -2)"><g transform="translate(263.605 1003.453)"><path class="b" d="M315.085,697.317a5.852,5.852,0,0,1-6-5.694c0-14.129,12.11-25.623,26.99-25.623a5.7,5.7,0,1,1,0,11.388c-8.268,0-14.995,6.386-14.995,14.235A5.854,5.854,0,0,1,315.085,697.317Z" transform="translate(-309.087 -666)"/><g transform="translate(82.052)"><path class="b" d="M365.743,697.317a5.854,5.854,0,0,1-6-5.694c0-7.849-6.727-14.235-14.995-14.235a5.7,5.7,0,1,1,0-11.388c14.884,0,26.99,11.493,26.99,25.623A5.852,5.852,0,0,1,365.743,697.317Z" transform="translate(-338.753 -666)"/></g></g><path class="c" d="M11610.87-1296s13.566,29.6,0,62.9,18.5,22.2,18.5,22.2" transform="translate(-11300.773 2205.999)"/><ellipse class="d" cx="9.5" cy="10" rx="9.5" ry="10" transform="translate(254 920)"/><circle class="d" cx="10" cy="10" r="10" transform="translate(364 920)"/><path class="d" d="M343.462,321.183a40.089,40.089,0,0,1-28.437-11.759A5.638,5.638,0,1,1,323,301.449a28.978,28.978,0,0,0,40.931,0,5.638,5.638,0,1,1,7.973,7.975A40.094,40.094,0,0,1,343.462,321.183Z" transform="translate(-20.399 724.279)"/><line class="e" x1="31.586" y2="13.687" transform="translate(254.02 947.273)"/><line class="e" x1="37.904" y1="9.476" transform="translate(355.096 949.379)"/></g></g></svg>