<svg xmlns="http://www.w3.org/2000/svg" width="329" height="329" viewBox="0 0 329 329"><defs><style>.a{fill:#f1f1f1;}.b{fill:none;stroke:#c2c2c2;stroke-linecap:round;stroke-linejoin:round;stroke-width:8px;}.c{fill:#e9c059;}</style></defs><g transform="translate(-556 -241)"><circle class="a" cx="164.5" cy="164.5" r="164.5" transform="translate(556 241)"/><g transform="translate(-3 1)"><path class="b" d="M823.749,970.731a12.19,12.19,0,1,0-12.19,12.191A12.191,12.191,0,0,0,823.749,970.731Z" transform="translate(-50.367 -618.145)"/><path class="b" d="M848.315,986.038a12.192,12.192,0,1,0-12.194,12.19A12.192,12.192,0,0,0,848.315,986.038Z" transform="translate(-177.656 -571.961)"/><g transform="translate(-562.949 -415.575)"><g transform="translate(1231.251 755.536)"><path class="c" d="M91.682,97.1a28.142,28.142,0,1,1,28.142-28.142A28.161,28.161,0,0,1,91.682,97.1Zm0-48.684a20.542,20.542,0,1,0,20.542,20.542A20.577,20.577,0,0,0,91.682,48.418Z" transform="translate(-63.558 -40.819)"/><path class="c" d="M68.081,60.271a3.794,3.794,0,0,1-3.791-3.809A14.915,14.915,0,0,1,79.2,41.552a3.791,3.791,0,1,1,0,7.582,7.357,7.357,0,0,0-7.329,7.329A3.794,3.794,0,0,1,68.081,60.271Z" transform="translate(-51.077 -28.321)"/></g><g transform="translate(1297.818 876.025) rotate(150)"><path class="c" d="M28.124,56.283A28.142,28.142,0,1,1,56.265,28.142,28.161,28.161,0,0,1,28.124,56.283Zm0-48.684A20.542,20.542,0,1,0,48.666,28.142,20.577,20.577,0,0,0,28.124,7.6Z"/><path class="c" d="M3.791,18.737A3.806,3.806,0,0,1,0,14.928,14.93,14.93,0,0,1,14.91,0a3.8,3.8,0,1,1,0,7.6,7.346,7.346,0,0,0-7.329,7.329A3.806,3.806,0,0,1,3.791,18.737Z" transform="translate(13.213 13.213)"/></g><g transform="translate(1309.684 803.317)"><path class="c" d="M96.045,99.749a28.142,28.142,0,1,1,28.124-28.142A28.165,28.165,0,0,1,96.045,99.749Zm0-48.684a20.542,20.542,0,1,0,20.542,20.542A20.581,20.581,0,0,0,96.045,51.066Z" transform="translate(-67.903 -43.466)"/><path class="c" d="M72.426,62.935a3.794,3.794,0,0,1-3.791-3.809A14.945,14.945,0,0,1,83.563,44.2a3.8,3.8,0,0,1,0,7.6,7.334,7.334,0,0,0-7.329,7.329A3.81,3.81,0,0,1,72.426,62.935Z" transform="translate(-55.422 -30.985)"/></g></g></g></g></svg>