<svg xmlns="http://www.w3.org/2000/svg" width="329" height="329" viewBox="0 0 329 329"><defs><style>.a{fill:#f1f1f1;}.b,.c{fill:none;stroke-miterlimit:10;stroke-width:8px;}.b{stroke:#a2cdf8;}.c{stroke:#c2c2c2;}</style></defs><g transform="translate(-156 -241)"><circle class="a" cx="164.5" cy="164.5" r="164.5" transform="translate(156 241)"/><g transform="translate(260.599 343.331)"><path class="b" d="M392.163,748.291c15.417,28.189-3.548,63.584-35.646,65.031-.72.033-1.446.05-2.172.05s-1.453-.017-2.172-.05c-32.1-1.446-51.066-36.841-35.646-65.031l37.818-69.144Z" transform="translate(-311.072 -679.147)"/><path class="b" d="M336.923,747.518s16.652-6.833,16.652-26.473" transform="translate(-280.543 -629.666)"/></g><g transform="translate(349.076 338)"><path class="c" d="M352.229,714.24c7.825,14.307-1.8,32.271-18.092,33.005-.365.017-.734.025-1.1.025s-.737-.009-1.1-.025c-16.292-.734-25.918-18.7-18.092-33.005l19.194-35.093Z" transform="translate(-311.072 -679.147)"/></g></g></svg>