<svg xmlns="http://www.w3.org/2000/svg" width="329" height="329" viewBox="0 0 329 329"><defs><style>.a,.c{fill:#f1f1f1;}.b{fill:#c2c2c2;stroke:#c2c2c2;}.c{stroke:#b5c874;stroke-linecap:round;stroke-miterlimit:10;stroke-width:8px;}</style></defs><g transform="translate(-556 -803)"><circle class="a" cx="164.5" cy="164.5" r="164.5" transform="translate(556 803)"/><circle class="a" cx="21" cy="21" r="21" transform="translate(681 900)"/><circle class="a" cx="21" cy="21" r="21" transform="translate(760 958)"/><circle class="a" cx="17" cy="17" r="17" transform="translate(679 1006)"/><g transform="translate(631.179 973.162)"><path class="b" d="M1565.62,383.312a4.046,4.046,0,0,1-2.642-.978,39.595,39.595,0,0,0-51.524,0,4.058,4.058,0,0,1-5.286,0,39.635,39.635,0,0,0-25.762-9.527,4.062,4.062,0,0,1,0-8.125,47.766,47.766,0,0,1,28.4,9.376,47.715,47.715,0,0,1,56.809,0,47.711,47.711,0,0,1,56.807,0,47.767,47.767,0,0,1,28.4-9.376,4.062,4.062,0,0,1,0,8.125,39.632,39.632,0,0,0-25.762,9.529,4.059,4.059,0,0,1-5.284,0,39.594,39.594,0,0,0-51.523,0A4.052,4.052,0,0,1,1565.62,383.312Z" transform="translate(-1476.345 -364.682)"/></g><g transform="translate(631.179 1009.178)"><path class="b" d="M1565.62,403.013a4.044,4.044,0,0,1-2.642-.977,39.595,39.595,0,0,0-51.524,0,4.058,4.058,0,0,1-5.286,0,39.635,39.635,0,0,0-25.762-9.527,4.062,4.062,0,0,1,0-8.125,47.766,47.766,0,0,1,28.4,9.376,47.715,47.715,0,0,1,56.809,0,47.711,47.711,0,0,1,56.807,0,47.767,47.767,0,0,1,28.4-9.376,4.062,4.062,0,0,1,0,8.125,39.632,39.632,0,0,0-25.762,9.529,4.059,4.059,0,0,1-5.284,0,39.594,39.594,0,0,0-51.523,0A4.051,4.051,0,0,1,1565.62,403.013Z" transform="translate(-1476.345 -384.385)"/></g><g transform="translate(689 895.452)"><circle class="c" cx="13.283" cy="13.283" r="13.283" transform="translate(25.687)"/><circle class="c" cx="13.283" cy="13.283" r="13.283" transform="translate(51.375 53.944)"/><circle class="c" cx="13.283" cy="13.283" r="13.283" transform="translate(0 38.531)"/><circle class="c" cx="13.283" cy="13.283" r="13.283" transform="translate(0 92.475)"/></g></g></svg>