<svg xmlns="http://www.w3.org/2000/svg" width="329" height="329" viewBox="0 0 329 329"><defs><style>.a{fill:#f1f1f1;}.b{fill:#c2c2c2;}.c{fill:#a98bd5;}</style></defs><g transform="translate(-956 -241)"><circle class="a" cx="164.5" cy="164.5" r="164.5" transform="translate(956 241)"/><g transform="translate(-259.835 32.191)"><path class="b" d="M1467.951,416.224a4.349,4.349,0,0,1-4.35-4.35V344.724h-62.754l4.92,4.92a37.409,37.409,0,1,1-52.9,0l4.922-4.922H1295.03v67.151a4.35,4.35,0,1,1-8.7,0v-71.5a4.349,4.349,0,0,1,4.35-4.35h77.605a4.35,4.35,0,0,1,3.076,7.426L1359.012,355.8a28.71,28.71,0,1,0,40.6,0l-12.347-12.346a4.35,4.35,0,0,1,3.074-7.426h77.607a4.35,4.35,0,0,1,4.35,4.35v71.5A4.35,4.35,0,0,1,1467.951,416.224Z" transform="translate(1.107 14.957)"/><g transform="translate(1364.167 370.532)"><path class="c" d="M1342.293,386.139a4.349,4.349,0,0,1-4.35-4.35V351.612a4.35,4.35,0,0,1,8.7,0v30.177A4.35,4.35,0,0,1,1342.293,386.139Z" transform="translate(-1324.875 -347.262)"/><path class="c" d="M1360.914,375.388a4.339,4.339,0,0,1-2.172-.583l-26.134-15.09a4.349,4.349,0,1,1,4.349-7.533l26.134,15.088a4.35,4.35,0,0,1-2.178,8.118Z" transform="translate(-1330.432 -344.055)"/><path class="c" d="M1334.787,375.388a4.35,4.35,0,0,1-2.178-8.118l26.134-15.088a4.349,4.349,0,1,1,4.35,7.533l-26.134,15.09A4.338,4.338,0,0,1,1334.787,375.388Z" transform="translate(-1330.432 -344.055)"/></g><g transform="translate(1284.835 315.809)"><path class="c" d="M1448.84,334.963c-7.4,0-11.251-3.532-14.35-6.371-2.685-2.458-4.46-4.083-8.471-4.083s-5.782,1.623-8.464,4.083c-3.1,2.839-6.949,6.371-14.343,6.371s-11.246-3.532-14.343-6.371c-2.683-2.458-4.457-4.083-8.468-4.083s-5.781,1.623-8.464,4.083c-3.1,2.839-6.949,6.371-14.341,6.371s-11.245-3.532-14.34-6.371c-2.681-2.46-4.452-4.083-8.459-4.083s-5.782,1.623-8.464,4.083c-3.1,2.839-6.949,6.371-14.343,6.371s-11.246-3.532-14.341-6.371c-2.683-2.46-4.454-4.083-8.463-4.083a4.35,4.35,0,1,1,0-8.7c7.393,0,11.244,3.532,14.341,6.371,2.683,2.46,4.454,4.083,8.463,4.083s5.782-1.623,8.464-4.083c3.1-2.84,6.949-6.371,14.344-6.371s11.244,3.534,14.339,6.373c2.681,2.458,4.452,4.082,8.459,4.082s5.78-1.623,8.463-4.083c3.095-2.84,6.949-6.371,14.343-6.371s11.25,3.532,14.347,6.371c2.683,2.46,4.454,4.083,8.464,4.083s5.782-1.623,8.464-4.083c3.1-2.84,6.949-6.371,14.343-6.371s11.25,3.532,14.348,6.371c2.687,2.458,4.459,4.083,8.473,4.083s5.787-1.623,8.47-4.083c3.1-2.84,6.953-6.371,14.35-6.371a4.35,4.35,0,0,1,0,8.7c-4.016,0-5.787,1.625-8.473,4.085C1460.09,331.431,1456.237,334.963,1448.84,334.963Z" transform="translate(-1284.835 -315.809)"/></g></g></g></svg>